<?xml version="1.0" standalone="no"?>
<!DOCTYPE svg PUBLIC "-//W3C//DTD SVG 20010904//EN"
 "http://www.w3.org/TR/2001/REC-SVG-20010904/DTD/svg10.dtd">
<svg version="1.0" xmlns="http://www.w3.org/2000/svg"
 width="535.000000pt" height="210.000000pt" viewBox="0 0 535.000000 210.000000"
 preserveAspectRatio="xMidYMid meet">

<g transform="translate(0.000000,210.000000) scale(0.100000,-0.100000)"
fill="#000000" stroke="none">
<path d="M234 1755 c-4 -9 -4 -134 -1 -278 4 -260 25 -469 61 -621 17 -73 41
-92 78 -63 13 10 14 22 8 67 -17 115 -13 150 28 219 44 76 179 222 275 298 70
57 83 85 39 91 -52 8 -218 -130 -324 -269 -34 -44 -55 -64 -59 -56 -14 25 -29
237 -29 417 0 131 -4 190 -12 198 -17 17 -58 15 -64 -3z"/>
<path d="M1956 1575 c-9 -9 -16 -24 -17 -33 0 -9 -6 -84 -12 -167 l-12 -150
-58 -5 c-66 -6 -94 -28 -76 -61 8 -16 22 -19 74 -19 l65 0 0 -67 c0 -83 22
-187 49 -242 34 -66 95 -86 166 -57 28 12 35 21 35 42 0 26 -1 27 -45 21 -37
-6 -49 -3 -70 16 -31 27 -55 127 -55 233 l0 71 65 7 c84 9 95 13 95 42 0 23
-2 24 -81 24 l-81 0 9 103 c4 56 8 136 8 177 0 69 -2 75 -21 78 -12 2 -29 -4
-38 -13z"/>
<path d="M1030 1551 c-17 -32 -1 -50 74 -88 39 -19 79 -42 88 -50 22 -19 38
-9 38 24 0 31 -57 88 -115 114 -51 24 -72 24 -85 0z"/>
<path d="M4933 1450 c-41 -25 -96 -108 -123 -185 -13 -35 -26 -114 -34 -190
l-12 -130 -38 112 c-44 133 -71 177 -109 181 -38 5 -81 -44 -104 -115 -18 -57
-31 -53 -32 12 -1 17 -6 36 -13 43 -17 17 -45 15 -52 -4 -8 -21 41 -354 55
-371 14 -16 35 -17 45 -1 4 6 11 53 15 105 9 109 34 206 59 228 23 20 30 10
63 -81 43 -121 115 -262 137 -269 34 -11 40 3 40 95 0 126 18 280 40 354 19
60 71 146 88 146 5 0 12 -79 15 -175 9 -242 47 -424 93 -442 30 -11 32 13 13
112 -11 59 -23 195 -30 330 -12 244 -17 265 -63 265 -12 0 -35 -9 -53 -20z"/>
<path d="M3603 1375 c-49 -25 -109 -81 -144 -134 l-15 -24 -26 49 c-19 36 -32
50 -51 52 -37 5 -42 -25 -13 -89 15 -33 31 -97 40 -167 28 -198 51 -266 89
-260 19 3 22 9 21 48 0 25 -6 91 -14 147 -12 92 -11 107 4 146 22 59 104 149
176 193 38 23 57 41 53 50 -8 22 -64 17 -120 -11z"/>
<path d="M1465 1325 c-46 -25 -76 -56 -96 -100 -48 -103 -3 -198 129 -272 53
-30 62 -39 62 -63 0 -36 -37 -68 -124 -105 -75 -32 -86 -58 -27 -63 65 -7 186
62 215 122 36 76 22 102 -98 176 -70 43 -90 71 -90 133 0 55 25 96 68 110 38
13 70 2 115 -38 57 -52 93 -30 55 34 -39 66 -146 100 -209 66z"/>
<path d="M3049 1274 c-95 -71 -160 -135 -180 -179 -26 -57 -24 -108 5 -142 21
-24 31 -28 75 -26 55 1 93 19 128 62 21 24 23 24 23 6 0 -11 5 -54 10 -95 17
-124 14 -301 -5 -346 -41 -100 -127 -143 -303 -151 -96 -5 -112 -8 -110 -22
10 -52 251 -54 353 -4 43 22 94 72 116 115 35 69 41 121 29 285 -12 175 -30
279 -64 380 l-24 70 30 31 c33 33 33 62 -1 62 -10 0 -47 -21 -82 -46z m10
-143 c28 -66 -43 -140 -126 -132 -36 3 4 88 65 138 36 30 47 29 61 -6z"/>
<path d="M1115 1286 c-14 -10 -18 -25 -16 -72 2 -84 19 -315 27 -373 7 -54 27
-72 52 -47 13 12 13 48 5 245 -11 258 -18 284 -68 247z"/>
<path d="M2570 1268 c-11 -18 -21 -37 -23 -42 -2 -5 -17 5 -34 23 -36 36 -56
38 -99 12 -63 -38 -144 -245 -144 -367 0 -66 12 -98 44 -119 58 -38 141 25
203 154 l37 76 14 -34 c38 -95 118 -167 192 -173 49 -4 54 27 7 47 -91 38
-157 177 -142 304 15 124 13 146 -12 149 -16 2 -28 -6 -43 -30z m-73 -95 c21
-51 12 -111 -27 -186 -39 -74 -96 -147 -116 -147 -48 0 25 275 94 353 22 25
31 21 49 -20z"/>
<path d="M4130 1268 c-11 -18 -21 -37 -23 -42 -2 -5 -17 5 -34 23 -36 36 -56
38 -99 12 -63 -38 -144 -245 -144 -367 0 -66 12 -98 44 -119 58 -38 141 25
203 154 l37 76 14 -34 c38 -95 118 -167 192 -173 49 -4 54 27 7 47 -91 38
-157 177 -142 304 15 124 13 146 -12 149 -16 2 -28 -6 -43 -30z m-73 -95 c21
-51 12 -111 -27 -186 -39 -74 -96 -147 -116 -147 -48 0 25 275 94 353 22 25
31 21 49 -20z"/>
<path d="M517 1098 c-9 -5 -17 -21 -17 -35 0 -24 94 -206 167 -323 45 -71 147
-176 198 -202 54 -28 156 -36 174 -14 16 19 0 46 -28 46 -10 0 -38 7 -64 16
-93 32 -189 145 -305 360 -90 168 -93 171 -125 152z"/>
</g>
</svg>
