<?xml version="1.0" standalone="no"?>
<!DOCTYPE svg PUBLIC "-//W3C//DTD SVG 20010904//EN"
 "http://www.w3.org/TR/2001/REC-SVG-20010904/DTD/svg10.dtd">
<svg version="1.0" xmlns="http://www.w3.org/2000/svg"
 width="369.000000pt" height="111.000000pt" viewBox="0 0 369.000000 111.000000"
 preserveAspectRatio="xMidYMid meet">

<g transform="translate(0.000000,111.000000) scale(0.100000,-0.100000)"
fill="#000000" stroke="none">
<path d="M252 857 c-21 -25 -32 -71 -52 -218 -23 -174 -27 -303 -8 -297 7 3
12 30 13 73 2 65 4 70 36 97 53 45 58 42 115 -71 36 -72 57 -92 75 -74 6 6 -2
24 -21 49 -16 21 -30 44 -30 50 0 6 -14 30 -31 53 -35 49 -34 51 46 107 48 32
67 54 50 54 -14 0 -86 -42 -143 -84 -34 -25 -67 -46 -73 -46 -21 0 6 172 46
298 8 24 -6 30 -23 9z"/>
<path d="M521 847 c-14 -17 -4 -27 26 -27 16 0 23 6 23 20 0 23 -31 27 -49 7z"/>
<path d="M1245 790 c-4 -6 -11 -38 -15 -72 -5 -34 -15 -65 -22 -69 -7 -5 -35
-9 -63 -9 -72 -1 -128 -13 -133 -28 -3 -10 16 -12 96 -6 l100 7 -4 -44 c-3
-24 -9 -73 -15 -109 -13 -78 -10 -116 11 -114 8 1 50 11 92 23 43 11 91 21
107 21 17 0 33 5 36 10 7 12 -75 12 -155 0 -30 -4 -59 -4 -63 0 -11 10 12 169
28 194 11 18 22 20 114 17 82 -2 102 0 99 11 -3 8 -25 14 -64 15 -32 2 -78 5
-102 9 l-44 5 7 42 c4 23 13 54 21 69 12 23 11 27 -2 32 -21 8 -22 8 -29 -4z"/>
<path d="M1660 774 c-65 -17 -160 -62 -160 -75 0 -15 18 -11 92 22 50 22 88
31 130 32 78 2 85 -7 72 -98 l-9 -66 -61 -3 c-85 -3 -171 -46 -201 -101 -30
-53 -29 -90 2 -120 28 -29 51 -30 171 -13 64 9 89 18 115 40 33 26 33 27 10
28 -27 0 -26 -19 0 207 l13 113 -24 25 c-27 29 -65 32 -150 9z m107 -241 c6
-16 7 -50 4 -78 -7 -61 -26 -72 -133 -81 -62 -6 -77 -4 -91 10 -59 59 58 173
180 175 25 1 33 -4 40 -26z"/>
<path d="M2740 774 c-65 -17 -160 -62 -160 -75 0 -15 18 -11 92 22 50 22 88
31 130 32 78 2 85 -7 72 -98 l-9 -66 -61 -3 c-85 -3 -171 -46 -201 -101 -30
-53 -29 -90 2 -120 28 -29 51 -30 171 -13 64 9 89 18 115 40 33 26 33 27 10
28 -27 0 -26 -19 0 207 l13 113 -24 25 c-27 29 -65 32 -150 9z m107 -241 c6
-16 7 -50 4 -78 -7 -61 -26 -72 -133 -81 -62 -6 -77 -4 -91 10 -59 59 58 173
180 175 25 1 33 -4 40 -26z"/>
<path d="M1970 763 c-78 -40 -121 -153 -85 -222 26 -51 132 -83 184 -56 47 24
54 20 46 -22 -3 -21 -10 -42 -15 -47 -5 -5 -39 -9 -77 -10 -107 -3 -144 -41
-127 -130 11 -61 71 -84 134 -51 43 22 66 62 95 161 14 49 39 128 56 177 25
75 28 93 19 125 -16 63 -50 86 -128 90 -50 2 -76 -2 -102 -15z m177 -38 c26
-30 31 -86 9 -105 -8 -6 -16 -23 -18 -38 -3 -27 -51 -67 -94 -78 -30 -8 -96
12 -122 36 -39 37 -23 128 30 178 54 50 156 54 195 7z m-69 -354 c11 -7 11
-14 -1 -42 -32 -75 -103 -112 -141 -73 -20 19 -21 78 -2 93 31 26 118 39 144
22z"/>
<path d="M745 716 c-79 -37 -147 -120 -132 -160 9 -23 60 -45 140 -60 115 -22
154 -35 161 -52 18 -46 -63 -85 -136 -65 -82 23 -88 24 -88 9 0 -8 22 -22 50
-32 55 -20 122 -16 171 10 32 16 53 68 39 94 -12 22 -76 44 -183 65 -43 8 -87
20 -98 25 -30 17 -23 52 19 92 52 50 92 68 152 68 62 0 100 -30 100 -80 0 -20
5 -30 15 -30 20 0 20 68 0 97 -32 46 -134 55 -210 19z"/>
<path d="M2254 695 c-16 -39 -21 -355 -5 -355 12 0 19 21 27 82 9 84 22 114
64 152 52 47 91 66 151 73 40 5 49 9 49 26 0 17 -4 19 -42 13 -60 -10 -125
-41 -169 -81 -22 -19 -44 -35 -49 -35 -15 0 -12 81 5 114 19 36 19 46 -1 46
-8 0 -22 -16 -30 -35z"/>
<path d="M3122 700 c-23 -16 -54 -48 -68 -70 -47 -71 -59 -47 -29 63 4 16 3
27 -3 27 -18 0 -32 -27 -37 -76 -4 -27 -13 -99 -22 -161 -15 -110 -13 -157 7
-137 6 6 17 45 25 87 17 90 27 111 89 189 52 65 90 83 113 52 18 -24 12 -131
-13 -234 -9 -39 -14 -74 -10 -78 14 -13 34 28 55 116 21 81 48 136 95 190 23
26 61 29 70 6 11 -28 6 -121 -10 -201 -8 -43 -16 -84 -17 -92 -3 -21 21 -25
27 -4 14 44 36 193 36 246 0 48 -4 62 -25 82 -13 14 -31 25 -40 25 -9 0 -38
-21 -65 -46 -27 -25 -53 -43 -58 -40 -5 3 -12 18 -15 34 -4 17 -16 33 -32 40
-33 15 -25 17 -73 -18z"/>
<path d="M519 663 c-19 -22 -20 -314 -2 -320 10 -4 13 22 12 104 0 60 3 137 7
171 7 66 5 72 -17 45z"/>
</g>
</svg>
